<svg width="443" height="432" viewBox="0 0 443 432" fill="none" xmlns="http://www.w3.org/2000/svg">
<g clip-path="url(#clip0_79_200)">
<path d="M99.96 48.49C99.96 48.49 38.12 99.38 15.14 162.25C-7.84004 225.12 9.84996 295.77 63.02 339.67C116.19 383.57 195.11 359.31 269.44 378.36C343.78 397.41 416.6 374.54 433.51 296.67C450.42 218.8 396.87 202.58 371.38 122.17C345.88 41.75 247.79 -62.95 99.96 48.49Z" fill="#1DB356"/>
<path opacity="0.7" d="M99.96 48.49C99.96 48.49 38.12 99.38 15.14 162.25C-7.84004 225.12 9.84996 295.77 63.02 339.67C116.19 383.57 195.11 359.31 269.44 378.36C343.78 397.41 416.6 374.54 433.51 296.67C450.42 218.8 396.87 202.58 371.38 122.17C345.88 41.75 247.79 -62.95 99.96 48.49Z" fill="white"/>
<path d="M17.52 387.2H429.6" stroke="#364865" stroke-miterlimit="10"/>
<path d="M0 387.2H6.45" stroke="#364865" stroke-miterlimit="10"/>
<path d="M194.23 61.55H142.59C141.673 61.55 140.93 62.2932 140.93 63.21V94.46C140.93 95.3768 141.673 96.12 142.59 96.12H194.23C195.147 96.12 195.89 95.3768 195.89 94.46V63.21C195.89 62.2932 195.147 61.55 194.23 61.55Z" stroke="#364865" stroke-miterlimit="10"/>
<path d="M195.89 81.94H140.93V89.92H195.89V81.94Z" stroke="#364865" stroke-miterlimit="10"/>
<path d="M187.25 71.97C189.332 71.97 191.02 70.2821 191.02 68.2C191.02 66.1179 189.332 64.43 187.25 64.43C185.168 64.43 183.48 66.1179 183.48 68.2C183.48 70.2821 185.168 71.97 187.25 71.97Z" stroke="#364865" stroke-miterlimit="10"/>
<path d="M181.49 71.97C183.572 71.97 185.26 70.2821 185.26 68.2C185.26 66.1179 183.572 64.43 181.49 64.43C179.408 64.43 177.72 66.1179 177.72 68.2C177.72 70.2821 179.408 71.97 181.49 71.97Z" stroke="#364865" stroke-miterlimit="10"/>
<path d="M145.81 67.09H160.88" stroke="#364865" stroke-miterlimit="10"/>
<path d="M77.6 215.74H25.96C25.0433 215.74 24.3 216.483 24.3 217.4V248.65C24.3 249.567 25.0433 250.31 25.96 250.31H77.6C78.5168 250.31 79.2601 249.567 79.2601 248.65V217.4C79.2601 216.483 78.5168 215.74 77.6 215.74Z" stroke="#364865" stroke-miterlimit="10"/>
<path d="M79.2601 236.13H24.3V244.11H79.2601V236.13Z" stroke="#364865" stroke-miterlimit="10"/>
<path d="M74.3801 222.39C74.3801 224.47 72.6901 226.16 70.6101 226.16C68.5301 226.16 66.8401 224.47 66.8401 222.39C66.8401 220.31 68.5301 218.62 70.6101 218.62C72.6901 218.62 74.3801 220.31 74.3801 222.39Z" stroke="#364865" stroke-miterlimit="10"/>
<path d="M64.8501 226.16C66.9322 226.16 68.6201 224.472 68.6201 222.39C68.6201 220.308 66.9322 218.62 64.8501 218.62C62.768 218.62 61.0801 220.308 61.0801 222.39C61.0801 224.472 62.768 226.16 64.8501 226.16Z" stroke="#364865" stroke-miterlimit="10"/>
<path d="M29.17 221.28H44.24" stroke="#364865" stroke-miterlimit="10"/>
<path d="M368.31 28.3H334.16V62.45H368.31V28.3Z" stroke="#364865" stroke-miterlimit="10"/>
<path d="M361.79 42.75H353.08V34.05H349.39V42.75H340.69V46.44H349.39V55.14H353.08V46.44H361.79V42.75Z" stroke="#364865" stroke-miterlimit="10"/>
<path d="M402.39 28.3H368.24V62.45H402.39V28.3Z" stroke="#364865" stroke-miterlimit="10"/>
<path d="M394.41 42.75H376.22V45.91H394.41V42.75Z" stroke="#364865" stroke-miterlimit="10"/>
<path d="M368.31 62.39H334.16V96.54H368.31V62.39Z" stroke="#364865" stroke-miterlimit="10"/>
<path d="M357.39 69.92L351.24 76.07L345.09 69.92L342.48 72.53L348.63 78.68L342.48 84.83L345.09 87.44L351.24 81.29L357.39 87.44L360 84.83L353.85 78.68L360 72.53L357.39 69.92Z" stroke="#364865" stroke-miterlimit="10"/>
<path d="M402.39 62.39H368.24V96.54H402.39V62.39Z" stroke="#364865" stroke-miterlimit="10"/>
<path d="M394.41 76.83H376.22V79.99H394.41V76.83Z" stroke="#364865" stroke-miterlimit="10"/>
<path d="M385.31 73.94C386.57 73.94 387.6 72.92 387.6 71.65C387.6 70.38 386.58 69.36 385.31 69.36C384.04 69.36 383.02 70.38 383.02 71.65C383.02 72.92 384.04 73.94 385.31 73.94Z" stroke="#364865" stroke-miterlimit="10"/>
<path d="M385.31 87.83C386.575 87.83 387.6 86.8047 387.6 85.54C387.6 84.2753 386.575 83.25 385.31 83.25C384.045 83.25 383.02 84.2753 383.02 85.54C383.02 86.8047 384.045 87.83 385.31 87.83Z" stroke="#364865" stroke-miterlimit="10"/>
<path d="M25.2501 327.74H3.68005V349.31H25.2501V327.74Z" stroke="#364865" stroke-miterlimit="10"/>
<path d="M21.12 336.86H15.63V331.37H13.3V336.86H7.80005V339.2H13.3V344.69H15.63V339.2H21.12V336.86Z" stroke="#364865" stroke-miterlimit="10"/>
<path d="M46.7701 327.74H25.2001V349.31H46.7701V327.74Z" stroke="#364865" stroke-miterlimit="10"/>
<path d="M41.7301 336.86H30.2401V338.86H41.7301V336.86Z" stroke="#364865" stroke-miterlimit="10"/>
<path d="M25.2501 349.26H3.68005V370.83H25.2501V349.26Z" stroke="#364865" stroke-miterlimit="10"/>
<path d="M18.3501 354.02L14.4601 357.91L10.5801 354.02L8.93005 355.67L12.8101 359.56L8.93005 363.44L10.5801 365.09L14.4601 361.2L18.3501 365.09L20.0001 363.44L16.1101 359.56L20.0001 355.67L18.3501 354.02Z" stroke="#364865" stroke-miterlimit="10"/>
<path d="M46.7701 349.26H25.2001V370.83H46.7701V349.26Z" stroke="#364865" stroke-miterlimit="10"/>
<path d="M41.7301 358.39H30.2401V360.39H41.7301V358.39Z" stroke="#364865" stroke-miterlimit="10"/>
<path d="M35.9802 356.56C36.7754 356.56 37.4202 355.915 37.4202 355.12C37.4202 354.325 36.7754 353.68 35.9802 353.68C35.1849 353.68 34.5402 354.325 34.5402 355.12C34.5402 355.915 35.1849 356.56 35.9802 356.56Z" stroke="#364865" stroke-miterlimit="10"/>
<path d="M35.9802 362.44C35.1802 362.44 34.5402 363.09 34.5402 363.88C34.5402 364.67 35.1902 365.32 35.9802 365.32C36.7702 365.32 37.4202 364.67 37.4202 363.88C37.4202 363.09 36.7702 362.44 35.9802 362.44Z" stroke="#364865" stroke-miterlimit="10"/>
<path d="M265.08 70.94C264.95 70.97 264.88 71.07 264.88 71.17L264.91 72.65C264.91 73.05 264.71 73.21 264.35 73.21H262.41C262.05 73.21 261.85 73.04 261.85 72.65L261.92 71.13C261.92 71.03 261.85 70.93 261.72 70.9C257.96 70.44 255.79 68.16 255.79 65V63.58C255.79 63.22 255.99 63.02 256.35 63.02H259.78C260.14 63.02 260.34 63.19 260.34 63.45V63.91C260.34 65.59 261.43 67.04 263.67 67.04C265.78 67.04 266.67 65.75 266.67 64.44C266.67 62.1 262.38 61.74 259.22 59.69C257.18 58.44 255.76 56.82 255.76 54.02C255.76 50.56 257.9 48.12 261.69 47.56C261.82 47.53 261.89 47.43 261.89 47.33L261.82 45.55C261.82 45.15 262.02 44.99 262.38 44.99H264.26C264.62 44.99 264.82 45.19 264.82 45.55L264.79 47.3C264.79 47.4 264.86 47.5 264.99 47.53C268.95 47.96 271.19 50.36 271.19 53.76V54.85C271.19 55.21 270.99 55.41 270.63 55.41H267.17C266.81 55.41 266.61 55.28 266.61 55.08V54.75C266.61 53 265.62 51.42 263.31 51.42C261.46 51.42 260.34 52.38 260.34 53.86C260.34 56 263.34 56.33 266.44 57.68C269.83 59.2 271.32 61.31 271.32 64.21C271.32 67.84 269.11 70.41 265.09 70.93L265.08 70.94Z" stroke="#364865" stroke-miterlimit="10"/>
<path d="M263.26 78.02C273.61 78.02 282 69.6298 282 59.28C282 48.9302 273.61 40.54 263.26 40.54C252.91 40.54 244.52 48.9302 244.52 59.28C244.52 69.6298 252.91 78.02 263.26 78.02Z" stroke="#364865" stroke-miterlimit="10"/>
<path d="M114.93 36.09C114.84 36.11 114.8 36.18 114.8 36.24L114.82 37.23C114.82 37.49 114.69 37.61 114.44 37.61H113.14C112.9 37.61 112.76 37.5 112.76 37.23L112.8 36.21C112.8 36.14 112.76 36.08 112.67 36.06C110.15 35.75 108.7 34.23 108.7 32.11V31.16C108.7 30.92 108.83 30.78 109.08 30.78H111.38C111.62 30.78 111.76 30.89 111.76 31.07V31.38C111.76 32.51 112.49 33.48 113.99 33.48C115.4 33.48 116 32.62 116 31.74C116 30.17 113.13 29.93 111.01 28.56C109.64 27.72 108.69 26.64 108.69 24.76C108.69 22.44 110.12 20.81 112.66 20.43C112.75 20.41 112.79 20.34 112.79 20.28L112.75 19.09C112.75 18.83 112.88 18.71 113.13 18.71H114.39C114.63 18.71 114.77 18.84 114.77 19.09L114.75 20.26C114.75 20.33 114.79 20.39 114.88 20.41C117.53 20.7 119.03 22.31 119.03 24.58V25.31C119.03 25.55 118.9 25.69 118.65 25.69H116.33C116.09 25.69 115.95 25.6 115.95 25.47V25.25C115.95 24.08 115.29 23.02 113.74 23.02C112.5 23.02 111.75 23.66 111.75 24.65C111.75 26.08 113.76 26.31 115.83 27.21C118.1 28.23 119.1 29.64 119.1 31.58C119.1 34.01 117.62 35.73 114.93 36.08V36.09Z" stroke="#364865" stroke-miterlimit="10"/>
<path d="M122.576 37.1561C127.477 32.255 127.477 24.3088 122.576 19.4077C117.675 14.5066 109.729 14.5066 104.828 19.4077C99.9268 24.3088 99.9268 32.255 104.828 37.1561C109.729 42.0571 117.675 42.0571 122.576 37.1561Z" stroke="#364865" stroke-miterlimit="10"/>
<path d="M17.79 161.81C17.7 161.83 17.66 161.9 17.66 161.96L17.68 162.95C17.68 163.21 17.55 163.33 17.3 163.33H16C15.76 163.33 15.62 163.22 15.62 162.95L15.66 161.93C15.66 161.86 15.62 161.8 15.53 161.78C13.01 161.47 11.56 159.95 11.56 157.83V156.88C11.56 156.64 11.69 156.5 11.94 156.5H14.24C14.48 156.5 14.62 156.61 14.62 156.79V157.1C14.62 158.23 15.35 159.2 16.85 159.2C18.26 159.2 18.86 158.34 18.86 157.46C18.86 155.89 15.99 155.65 13.87 154.28C12.5 153.44 11.55 152.36 11.55 150.48C11.55 148.16 12.98 146.53 15.52 146.15C15.61 146.13 15.65 146.06 15.65 146L15.61 144.81C15.61 144.55 15.74 144.43 15.99 144.43H17.25C17.49 144.43 17.63 144.56 17.63 144.81L17.61 145.98C17.61 146.05 17.65 146.11 17.74 146.13C20.39 146.42 21.89 148.03 21.89 150.3V151.03C21.89 151.27 21.76 151.41 21.51 151.41H19.19C18.95 151.41 18.81 151.32 18.81 151.19V150.97C18.81 149.8 18.15 148.74 16.6 148.74C15.36 148.74 14.61 149.38 14.61 150.37C14.61 151.8 16.62 152.03 18.69 152.93C20.96 153.95 21.96 155.36 21.96 157.3C21.96 159.73 20.48 161.45 17.79 161.8V161.81Z" stroke="#364865" stroke-miterlimit="10"/>
<path d="M25.4454 162.872C30.3465 157.971 30.3465 150.025 25.4454 145.123C20.5444 140.222 12.5981 140.222 7.69707 145.123C2.79599 150.025 2.79599 157.971 7.69707 162.872C12.5981 167.773 20.5444 167.773 25.4454 162.872Z" stroke="#364865" stroke-miterlimit="10"/>
<path d="M430.82 333.54C430.73 333.56 430.69 333.63 430.69 333.69L430.71 334.68C430.71 334.94 430.58 335.06 430.33 335.06H429.03C428.79 335.06 428.65 334.95 428.65 334.68L428.69 333.66C428.69 333.59 428.65 333.53 428.56 333.51C426.04 333.2 424.59 331.68 424.59 329.56V328.61C424.59 328.37 424.72 328.23 424.97 328.23H427.27C427.51 328.23 427.65 328.34 427.65 328.52V328.83C427.65 329.96 428.38 330.93 429.88 330.93C431.29 330.93 431.89 330.07 431.89 329.19C431.89 327.62 429.02 327.38 426.9 326.01C425.53 325.17 424.58 324.09 424.58 322.21C424.58 319.89 426.01 318.26 428.55 317.88C428.64 317.86 428.68 317.79 428.68 317.73L428.64 316.54C428.64 316.28 428.77 316.16 429.02 316.16H430.28C430.52 316.16 430.66 316.29 430.66 316.54L430.64 317.71C430.64 317.78 430.68 317.84 430.77 317.86C433.42 318.15 434.92 319.76 434.92 322.03V322.76C434.92 323 434.79 323.14 434.54 323.14H432.22C431.98 323.14 431.84 323.05 431.84 322.92V322.7C431.84 321.53 431.18 320.47 429.63 320.47C428.39 320.47 427.64 321.11 427.64 322.1C427.64 323.53 429.65 323.76 431.72 324.66C433.99 325.68 434.99 327.09 434.99 329.03C434.99 331.46 433.51 333.18 430.82 333.53V333.54Z" stroke="#364865" stroke-miterlimit="10"/>
<path d="M429.6 338.29C436.531 338.29 442.15 332.671 442.15 325.74C442.15 318.809 436.531 313.19 429.6 313.19C422.669 313.19 417.05 318.809 417.05 325.74C417.05 332.671 422.669 338.29 429.6 338.29Z" stroke="#364865" stroke-miterlimit="10"/>
<path d="M389.45 410.25C389.45 413.59 312.87 416.29 218.4 416.29C123.93 416.29 47.35 413.58 47.35 410.25C47.35 406.92 123.93 404.21 218.4 404.21C312.87 404.21 389.45 406.92 389.45 410.25Z" fill="#CCCCCC"/>
<path d="M206.1 355.95C206.1 355.95 214.42 391.71 210.8 397.59C206.07 405.28 155.66 409.91 155.66 409.91H266.81C266.81 409.91 280.74 406 276.55 394.8C273.31 386.14 257.76 355.95 257.76 355.95H206.1Z" fill="white" stroke="#364865" stroke-linecap="round" stroke-linejoin="round"/>
<path d="M203.66 355.95C203.66 355.95 212.53 392.01 208.36 397.59C204.19 403.17 155.65 407.43 155.65 407.43H267.33C267.33 407.43 276.72 403.63 274.11 394.8C271.5 385.97 255.32 355.95 255.32 355.95H203.66Z" fill="white" stroke="#364865" stroke-linecap="round" stroke-linejoin="round"/>
<path d="M255.33 355.95H203.67C203.67 355.95 208.92 377.32 209.44 389.7H272.19C267.11 377.8 255.34 355.95 255.34 355.95H255.33Z" fill="#364865" stroke="#364865" stroke-linecap="round" stroke-linejoin="round"/>
<path d="M266.8 407.6H155.65V409.9H266.8V407.6Z" fill="white" stroke="#364865" stroke-linecap="round" stroke-linejoin="round"/>
<path d="M392.49 107.93H74.07C69.3866 107.93 65.59 111.727 65.59 116.41V350.98C65.59 355.663 69.3866 359.46 74.07 359.46H392.49C397.173 359.46 400.97 355.663 400.97 350.98V116.41C400.97 111.727 397.173 107.93 392.49 107.93Z" fill="white" stroke="#364865" stroke-linecap="round" stroke-linejoin="round"/>
<path d="M384.59 107.93H66.1699C61.4866 107.93 57.6899 111.727 57.6899 116.41V350.98C57.6899 355.663 61.4866 359.46 66.1699 359.46H384.59C389.273 359.46 393.07 355.663 393.07 350.98V116.41C393.07 111.727 389.273 107.93 384.59 107.93Z" fill="#364865" stroke="#364865" stroke-linecap="round" stroke-linejoin="round"/>
<path d="M57.6899 320.37H393.07V350.98C393.07 355.66 389.27 359.46 384.59 359.46H66.1699C61.4899 359.46 57.6899 355.66 57.6899 350.98V320.37Z" fill="white" stroke="#364865" stroke-linecap="round" stroke-linejoin="round"/>
<path d="M376.2 123.58H74.5599V301.29H376.2V123.58Z" fill="white" stroke="#364865" stroke-linecap="round" stroke-linejoin="round"/>
<path d="M345.74 225.89H89.6799V237.13H345.74V225.89Z" fill="#364865"/>
<path d="M345.74 247.13H89.6799V258.37H345.74V247.13Z" fill="#364865"/>
<path d="M89.6599 152.44V137.43C89.6599 137.18 89.7999 137.05 90.0399 137.05H92.4499C92.6999 137.05 92.8299 137.19 92.8299 137.43V152.44C92.8299 152.69 92.6999 152.82 92.4499 152.82H90.0399C89.7899 152.82 89.6599 152.68 89.6599 152.44Z" fill="#364865"/>
<path d="M95.5898 152.44V137.43C95.5898 137.18 95.7298 137.05 95.9698 137.05H98.2898C98.4898 137.05 98.6298 137.12 98.7398 137.3L104.38 146.68C104.45 146.79 104.54 146.77 104.54 146.64V137.44C104.54 137.19 104.68 137.06 104.92 137.06H107.29C107.54 137.06 107.67 137.2 107.67 137.44V152.45C107.67 152.7 107.54 152.83 107.29 152.83H104.99C104.79 152.83 104.65 152.74 104.54 152.56L98.8798 143.09C98.8098 142.98 98.7198 143 98.7198 143.14L98.7398 152.45C98.7398 152.7 98.5998 152.83 98.3598 152.83H95.9698C95.7198 152.83 95.5898 152.69 95.5898 152.45V152.44Z" fill="#364865"/>
<path d="M114.3 152.51L109.72 137.47C109.65 137.22 109.76 137.04 110.04 137.04H112.65C112.88 137.04 113.01 137.15 113.08 137.36L116.03 148.23C116.05 148.34 116.19 148.34 116.21 148.23L119.12 137.39C119.19 137.19 119.32 137.05 119.55 137.05H122.1C122.37 137.05 122.51 137.23 122.42 137.48L117.78 152.52C117.71 152.72 117.58 152.84 117.35 152.84H114.73C114.51 152.84 114.37 152.73 114.3 152.52V152.51Z" fill="#364865"/>
<path d="M123.38 147.35V142.53C123.38 139.15 125.75 136.87 129.31 136.87C132.87 136.87 135.26 139.15 135.26 142.53V147.35C135.26 150.78 132.89 153.08 129.31 153.08C125.73 153.08 123.38 150.78 123.38 147.35ZM132.08 147.46V142.5C132.08 140.74 130.98 139.59 129.31 139.59C127.64 139.59 126.56 140.74 126.56 142.5V147.46C126.56 149.2 127.67 150.35 129.31 150.35C130.95 150.35 132.08 149.2 132.08 147.46Z" fill="#364865"/>
<path d="M137.69 152.44V137.43C137.69 137.18 137.83 137.05 138.07 137.05H140.48C140.73 137.05 140.86 137.19 140.86 137.43V152.44C140.86 152.69 140.73 152.82 140.48 152.82H138.07C137.82 152.82 137.69 152.68 137.69 152.44Z" fill="#364865"/>
<path d="M143.3 147.53V142.32C143.3 139.03 145.62 136.86 149.16 136.86C152.7 136.86 155 138.93 155 142.07C155 142.21 154.86 142.3 154.64 142.32L152.23 142.48C151.98 142.5 151.82 142.43 151.82 142.37V142.23C151.82 140.65 150.76 139.59 149.16 139.59C147.56 139.59 146.48 140.65 146.48 142.23V147.66C146.48 149.22 147.54 150.27 149.16 150.27C150.78 150.27 151.82 149.21 151.82 147.66C151.82 147.5 151.96 147.39 152.2 147.41L154.61 147.52C154.83 147.54 154.99 147.56 154.99 147.63V147.74C154.99 150.9 152.65 152.99 149.15 152.99C145.65 152.99 143.29 150.8 143.29 147.51L143.3 147.53Z" fill="#364865"/>
<path d="M167.89 139.77H160.63C160.56 139.77 160.49 139.82 160.49 139.91V143.36C160.49 143.45 160.54 143.5 160.63 143.5H165.34C165.59 143.5 165.72 143.63 165.72 143.88V145.84C165.72 146.09 165.58 146.22 165.34 146.22H160.63C160.56 146.22 160.49 146.26 160.49 146.35V149.96C160.49 150.03 160.54 150.1 160.63 150.1H167.89C168.14 150.1 168.27 150.24 168.27 150.48V152.44C168.27 152.69 168.14 152.82 167.89 152.82H157.7C157.45 152.82 157.32 152.68 157.32 152.44V137.43C157.32 137.18 157.46 137.05 157.7 137.05H167.89C168.14 137.05 168.27 137.19 168.27 137.43V139.39C168.27 139.64 168.14 139.77 167.89 139.77Z" fill="#364865"/>
<path d="M89.6599 158.85H134.71" stroke="#364865" stroke-miterlimit="10"/>
<path d="M89.6599 165.47H134.71" stroke="#364865" stroke-miterlimit="10"/>
<path d="M235.73 165.47H280.78" stroke="#364865" stroke-miterlimit="10"/>
<path d="M235.73 172.06H280.78" stroke="#364865" stroke-miterlimit="10"/>
<path d="M235.73 178.65H280.78" stroke="#364865" stroke-miterlimit="10"/>
<path d="M89.6599 172.1H134.71" stroke="#364865" stroke-miterlimit="10"/>
<path d="M89.6599 283.29H134.71" stroke="#364865" stroke-miterlimit="10"/>
<path d="M89.6599 289.43H134.71" stroke="#364865" stroke-miterlimit="10"/>
<path d="M89.6599 178.72H134.71" stroke="#364865" stroke-miterlimit="10"/>
<path d="M197.64 185.35H89.6599V197.27H197.64V185.35Z" fill="#364865"/>
<path d="M345.36 173.42H288.39V179.38H345.36V173.42Z" fill="#1DB356"/>
<path d="M345.36 158.19H288.39V179.39H345.36V158.19Z" stroke="#364865" stroke-miterlimit="10"/>
<path d="M345.36 164.15H288.39V173.42H345.36V164.15Z" stroke="#364865" stroke-miterlimit="10"/>
<path d="M297.06 158.37V179.13" stroke="#364865" stroke-miterlimit="10"/>
<path d="M345.74 205.28H89.6799V277.1H345.74V205.28Z" stroke="#364865" stroke-miterlimit="10"/>
<path d="M345.74 205.28H89.6799V216.52H345.74V205.28Z" fill="#364865" stroke="#364865" stroke-miterlimit="10"/>
<path d="M270.45 205.55V276.98" stroke="#364865" stroke-miterlimit="10"/>
<path d="M298.28 205.55V276.98" stroke="#364865" stroke-miterlimit="10"/>
<path d="M298.72 282.69H262.19V296.69H298.72V282.69Z" fill="#1DB356"/>
<path d="M276.34 288.82C276.34 290.25 275.32 291.2 273.79 291.2H272.21C272.21 291.2 272.14 291.22 272.14 291.27V294.07C272.14 294.19 272.07 294.26 271.95 294.26H270.75C270.63 294.26 270.56 294.19 270.56 294.07V286.58C270.56 286.46 270.63 286.39 270.75 286.39H273.86C275.35 286.39 276.34 287.37 276.34 288.83V288.82ZM274.77 288.85C274.77 288.19 274.31 287.75 273.62 287.75H272.2C272.2 287.75 272.13 287.77 272.13 287.82V289.86C272.13 289.86 272.15 289.93 272.2 289.93H273.62C274.31 289.93 274.77 289.49 274.77 288.85Z" fill="#364865"/>
<path d="M281.54 294.11L281.23 293.07C281.23 293.07 281.2 293.01 281.16 293.01H278.41C278.41 293.01 278.35 293.02 278.34 293.07L278.03 294.11C278 294.21 277.93 294.27 277.82 294.27H276.52C276.39 294.27 276.32 294.18 276.36 294.06L278.75 286.57C278.78 286.47 278.85 286.41 278.96 286.41H280.61C280.72 286.41 280.79 286.47 280.82 286.57L283.21 294.06C283.25 294.18 283.19 294.27 283.05 294.27H281.75C281.64 294.27 281.57 294.21 281.54 294.11ZM278.79 291.78H280.78C280.78 291.78 280.85 291.76 280.84 291.7L279.83 288.27C279.81 288.21 279.76 288.21 279.74 288.27L278.74 291.7C278.73 291.76 278.75 291.78 278.8 291.78H278.79Z" fill="#364865"/>
<path d="M285.24 294.06V291.28C285.24 291.28 285.23 291.21 285.22 291.19L282.95 286.62C282.88 286.5 282.94 286.39 283.08 286.39H284.38C284.48 286.39 284.56 286.45 284.6 286.54L285.97 289.46C285.97 289.46 286.04 289.5 286.06 289.46L287.43 286.54C287.47 286.45 287.55 286.39 287.65 286.39H288.96C289.11 286.39 289.17 286.49 289.11 286.62L286.82 291.19C286.82 291.19 286.8 291.26 286.8 291.28V294.06C286.8 294.18 286.73 294.25 286.61 294.25H285.42C285.3 294.25 285.23 294.18 285.23 294.06H285.24Z" fill="#364865"/>
<path d="M376.2 123.58H74.5599V131.79H376.2V123.58Z" fill="#1DB356" stroke="#364865" stroke-linecap="round" stroke-linejoin="round"/>
<path d="M231.56 339.92C231.56 336.5 228.79 333.73 225.37 333.73C221.95 333.73 219.18 336.5 219.18 339.92C219.18 343.34 221.95 346.11 225.37 346.11C228.79 346.11 231.56 343.34 231.56 339.92Z" fill="#364865" stroke="#364865" stroke-linecap="round" stroke-linejoin="round"/>
<path d="M402.07 424.55C402.07 428.52 384.29 431.74 362.35 431.74C340.41 431.74 322.63 428.52 322.63 424.55C322.63 420.58 340.41 417.36 362.35 417.36C384.29 417.36 402.07 420.58 402.07 424.55Z" fill="#CCCCCC"/>
<path d="M337.8 240.24C337.8 240.24 333.52 241.84 332.18 247.86C330.84 253.88 328.04 272.06 326.56 280.62C325.09 289.18 317.2 316.99 317.2 316.99L321.34 319.8C321.34 319.8 331.5 304.96 334.31 298.01C337.12 291.06 339.93 286.24 340.33 280.9C340.73 275.55 340.06 246.14 340.06 243.87C340.06 241.6 338.99 239.99 337.79 240.26L337.8 240.24Z" fill="#1DB356" stroke="#364865" stroke-linecap="round" stroke-linejoin="round"/>
<path d="M341.68 414.81C341.68 414.81 331.12 421.63 329.91 424.04C328.71 426.45 330.98 427.12 336.86 426.31C342.74 425.51 346.89 422.43 349.7 420.83C352.51 419.23 353.84 419.09 352.91 415.48C351.97 411.87 341.68 414.81 341.68 414.81Z" fill="white" stroke="#364865" stroke-linecap="round" stroke-linejoin="round"/>
<path d="M382.99 415.88C382.99 415.88 394.62 423.77 393.95 425.51C393.28 427.25 389.81 428.05 383.66 426.04C377.51 424.03 376.17 422.43 373.63 420.29C371.09 418.15 372.03 415.48 372.03 413.61C372.03 411.74 382.99 415.88 382.99 415.88Z" fill="white" stroke="#364865" stroke-linecap="round" stroke-linejoin="round"/>
<path d="M336.2 293.72C336.2 293.72 333.79 314.84 333.53 331.69C333.26 348.54 341.02 412.8 341.02 413.47V415.48C341.02 415.48 344.1 416.95 347.3 417.08C350.5 417.21 354.12 416.81 354.12 416.81C354.12 416.81 354.12 404.91 354.39 395.69C354.66 386.46 356.13 344.39 356.13 344.39L356.53 326.21L359.2 327.95L371.77 417.08L383 415.88C383 415.88 384.34 356.56 384.07 340.25C383.8 323.94 380.59 295.19 380.59 295.19L336.2 293.72Z" fill="#364865" stroke="#364865" stroke-linecap="round" stroke-linejoin="round"/>
<path d="M357.19 233.96C357.19 233.96 339.41 239.44 337.8 240.24C336.2 241.04 335.13 245.32 335.13 250.67C335.13 256.02 337.14 282.49 336.87 285.7C336.6 288.91 335 292.92 336.34 295.19C337.68 297.46 355.33 298.93 364.82 298.53C374.31 298.13 379.66 299.06 381 296.39C382.34 293.72 383.14 260.69 384.48 253.07C385.82 245.45 386.75 241.44 384.08 239.3C381.41 237.16 367.23 234.62 363.76 233.82L357.21 233.95L357.19 233.96Z" fill="#1DB356" stroke="#364865" stroke-linecap="round" stroke-linejoin="round"/>
<path d="M356.59 230.59C356.59 230.59 353.65 231.57 352.66 233.8C351.68 236.03 348.73 247.01 349.8 247.54C350.87 248.08 359.17 244.06 360.42 244.33C361.67 244.6 366.76 251.2 368.27 250.31C369.78 249.42 373.36 240.05 372.02 235.23C370.68 230.41 357.92 229.34 356.58 230.59H356.59Z" fill="white" stroke="#364865" stroke-linecap="round" stroke-linejoin="round"/>
<path d="M354.98 227.55C354.98 227.55 354.89 232.46 354.89 234.96C354.89 237.46 357.03 246.38 358.91 246.03C360.78 245.67 368.55 236.93 369.8 234.61C371.05 232.29 371.32 227.47 371.32 227.47C371.32 227.47 365.79 231.4 361.59 230.15C357.39 228.9 354.99 227.56 354.99 227.56L354.98 227.55Z" fill="#CCCCCC" stroke="#364865" stroke-linecap="round" stroke-linejoin="round"/>
<path d="M361.59 230.14C357.4 228.89 354.99 227.55 354.99 227.55C354.99 227.55 354.96 229.48 354.93 231.54C355.54 232.85 356.12 233.95 356.53 234.73C357.98 237.49 360.6 238.44 363.15 237.49C365.32 236.68 368.23 234.65 370.71 231.9C371.19 229.73 371.32 227.45 371.32 227.45C371.32 227.45 365.79 231.38 361.59 230.13V230.14Z" fill="#364865" stroke="#364865" stroke-linecap="round" stroke-linejoin="round"/>
<path d="M352.89 213.2C352.89 213.2 352.38 209.64 350.71 211.09C349.04 212.54 349.33 216.18 350.13 217.93C350.93 219.68 351.8 219.46 352.02 219.38C352.24 219.31 352.89 213.2 352.89 213.2Z" fill="#CCCCCC" stroke="#364865" stroke-linecap="round" stroke-linejoin="round"/>
<path d="M376.16 216.62C376.38 216.26 379.07 207.24 379.22 202.36C379.37 197.49 372.31 192.9 367.29 191.96C362.27 191.01 354.85 192.25 353.25 195.09C351.65 197.93 351.5 209.06 351.5 210.95C351.5 212.84 352.95 213.13 353.32 212.7C353.68 212.26 354.77 201.28 355.43 200.48C356.08 199.68 367.72 200.04 369.54 200.55C371.36 201.06 372.38 202.95 372.01 205.71C371.64 208.47 372.08 208.33 372.81 209.93C373.54 211.53 373.54 212.11 373.54 214.29C373.54 216.47 374.63 219.09 376.16 216.62Z" fill="#364865" stroke="#364865" stroke-linecap="round" stroke-linejoin="round"/>
<path d="M354.49 200.11C354.49 200.11 352.24 209.86 351.87 216.33C351.5 222.8 355.07 229.5 356.53 232.26C357.99 235.02 360.6 235.97 363.15 235.02C365.7 234.07 369.26 231.46 371.95 227.96C374.64 224.47 376.02 216.1 376.02 216.1C376.02 216.1 374.93 216.68 374.86 215.74C374.79 214.79 375.51 211.52 374.79 209.41C374.07 207.3 372.46 206.79 373.41 204.75C374.36 202.71 374.72 201.48 374.72 201.11C374.72 200.74 371.08 198.56 364.46 197.98C357.84 197.4 354.86 198.27 354.49 200.09V200.11Z" fill="#CCCCCC" stroke="#364865" stroke-linecap="round" stroke-linejoin="round"/>
<path d="M355.21 206.07C355.21 206.07 357.16 204.37 359.88 206.32" stroke="#364865" stroke-linecap="round" stroke-linejoin="round"/>
<path d="M365.05 206.84C365.05 206.84 369.72 204.97 371.58 208.28" stroke="#364865" stroke-linecap="round" stroke-linejoin="round"/>
<path d="M375.29 217.2C375.29 217.2 376.74 213.93 378.85 213.78C380.96 213.63 380.67 217.78 378.7 220.47C376.74 223.16 373.9 224.25 373.83 222.29" fill="#CCCCCC"/>
<path d="M375.29 217.2C375.29 217.2 376.74 213.93 378.85 213.78C380.96 213.63 380.67 217.78 378.7 220.47C376.74 223.16 373.9 224.25 373.83 222.29" stroke="#364865" stroke-linecap="round" stroke-linejoin="round"/>
<path d="M361.03 211.31C361.03 211.31 358.63 218.22 359.14 219.17C359.65 220.12 361.61 221.13 364.01 220.04" stroke="#364865" stroke-linecap="round" stroke-linejoin="round"/>
<path d="M361.98 223.31C361.98 223.31 365.33 224.62 368.24 222.22" stroke="#364865" stroke-linecap="round" stroke-linejoin="round"/>
<path d="M358.63 211.56C358.63 212.34 358.35 212.98 358.01 212.98C357.67 212.98 357.39 212.34 357.39 211.56C357.39 210.78 357.67 210.14 358.01 210.14C358.35 210.14 358.63 210.78 358.63 211.56Z" fill="#364865"/>
<path d="M367.11 213.93C367.452 213.93 367.73 213.294 367.73 212.51C367.73 211.726 367.452 211.09 367.11 211.09C366.768 211.09 366.49 211.726 366.49 212.51C366.49 213.294 366.768 213.93 367.11 213.93Z" fill="#364865"/>
<path d="M361.1 211.13C361.1 213.44 359.23 215.31 356.92 215.31C354.61 215.31 352.74 213.44 352.74 211.13C352.74 208.82 354.61 206.95 356.92 206.95C359.23 206.95 361.1 208.82 361.1 211.13Z" stroke="#364865" stroke-linecap="round" stroke-linejoin="round"/>
<path d="M371.95 212.02C371.95 214.45 369.98 216.42 367.55 216.42C365.12 216.42 363.15 214.45 363.15 212.02C363.15 209.59 365.12 207.62 367.55 207.62C369.98 207.62 371.95 209.59 371.95 212.02Z" stroke="#364865" stroke-linecap="round" stroke-linejoin="round"/>
<path d="M361.1 210.36C361.1 210.36 362.19 209.78 363.06 210.72" stroke="#364865" stroke-linecap="round" stroke-linejoin="round"/>
<path d="M371.87 212.47L377.11 214.66" stroke="#364865" stroke-linecap="round" stroke-linejoin="round"/>
<path d="M318.28 313.91L323.9 316.18" stroke="#364865" stroke-linecap="round" stroke-linejoin="round"/>
<path d="M313.1 331.03C313.1 331.03 313.89 335.65 314.44 335.89C314.99 336.13 315.17 333.64 314.99 332.06L314.81 330.48C314.81 330.48 315.66 334.61 316.51 334.98C317.36 335.34 316.87 333.52 316.63 332.61L316.39 331.7C316.39 331.7 318.52 333.95 318.7 333.4C318.88 332.85 317.42 330.12 317.36 329.93C317.3 329.75 316.63 327.56 316.57 326.71C316.51 325.86 315.29 322.45 314.08 324.58C312.87 326.71 313.11 331.03 313.11 331.03H313.1Z" fill="#CCCCCC" stroke="#364865" stroke-linecap="round" stroke-linejoin="round"/>
<path d="M317.21 316.98C317.21 316.98 313.2 323.4 312.13 325.54C311.06 327.68 310.26 335.7 311.19 336.24C312.12 336.78 312.39 334.83 312.6 333.47C312.9 331.62 314.3 328.85 314.3 328.85C314.3 328.85 313.72 333.97 314.53 333.84C315.33 333.71 316 329.03 316.54 327.82C317.08 326.61 320.28 324.88 321.35 319.8L317.21 316.99V316.98Z" fill="#CCCCCC" stroke="#364865" stroke-linecap="round" stroke-linejoin="round"/>
<path d="M314.31 328.84C314.31 328.84 314.35 328.15 314.8 325.62L314.31 328.84Z" fill="white"/>
<path d="M314.31 328.84C314.31 328.84 314.35 328.15 314.8 325.62" stroke="#364865" stroke-linecap="round" stroke-linejoin="round"/>
<path d="M383.53 239.04C383.53 239.04 387.67 241.71 390.21 248C392.75 254.29 401.44 281.69 401.71 282.23C401.98 282.76 401.71 288.11 397.43 289.85C393.15 291.59 391.15 287.84 388.61 283.57C386.07 279.3 380.19 260.31 380.19 260.31" fill="#1DB356"/>
<path d="M383.53 239.04C383.53 239.04 387.67 241.71 390.21 248C392.75 254.29 401.44 281.69 401.71 282.23C401.98 282.76 401.71 288.11 397.43 289.85C393.15 291.59 391.15 287.84 388.61 283.57C386.07 279.3 380.19 260.31 380.19 260.31" stroke="#364865" stroke-linecap="round" stroke-linejoin="round"/>
<path d="M394.49 274.47L415.25 264.28L418.86 268.42C418.86 268.42 403.58 287.04 400.24 289.18C396.9 291.32 392.75 290.78 391.15 287.17" fill="#1DB356"/>
<path d="M394.49 274.47L415.25 264.28L418.86 268.42C418.86 268.42 403.58 287.04 400.24 289.18C396.9 291.32 392.75 290.78 391.15 287.17" stroke="#364865" stroke-linecap="round" stroke-linejoin="round"/>
<path d="M412.98 265.74L416.85 270.42" stroke="#364865" stroke-linecap="round" stroke-linejoin="round"/>
<path d="M415.25 264.27C415.25 264.27 419.8 257.18 421.13 256.65C422.46 256.12 426.21 255.31 428.35 253.71C430.49 252.11 431.69 252.51 430.49 254.24C429.29 255.97 427.95 256.25 426.75 256.78C425.55 257.31 425.01 257.72 425.01 257.72C425.01 257.72 428.35 257.85 430.49 257.99C432.63 258.13 434.37 257.72 434.37 257.72C434.37 257.72 439.85 255.31 438.51 258.25C437.17 261.19 437.31 263.06 431.96 264.67C426.61 266.28 421.26 266.14 421.26 266.14L418.85 268.41L415.24 264.27H415.25Z" fill="#CCCCCC" stroke="#364865" stroke-linecap="round" stroke-linejoin="round"/>
<path d="M436.24 262.67C436.24 262.67 438.91 261.87 439.85 258.93C440.79 255.99 440.25 255.85 439.05 256.92C437.85 257.99 436.91 259.73 436.24 261.06C435.57 262.39 436.24 262.66 436.24 262.66V262.67Z" fill="#CCCCCC" stroke="#364865" stroke-linecap="round" stroke-linejoin="round"/>
<path d="M435.04 262.8C435.04 262.8 436.64 263.87 437.85 260.66C439.05 257.45 438.92 254.91 437.85 255.45C436.78 255.98 436.51 256.12 435.18 258.93C433.85 261.74 432.64 262.94 433.44 263.21C434.24 263.48 435.04 262.81 435.04 262.81V262.8Z" fill="#CCCCCC" stroke="#364865" stroke-linecap="round" stroke-linejoin="round"/>
<path d="M419.66 264.01C419.66 264.01 421.67 260.67 423.94 260.67C426.21 260.67 432.23 261.74 432.23 261.74C432.23 261.74 436.64 255.32 437.58 256.26C438.52 257.2 436.11 261.61 435.04 262.81C433.97 264.01 433.84 264.15 432.9 264.41" fill="#CCCCCC"/>
<path d="M419.66 264.01C419.66 264.01 421.67 260.67 423.94 260.67C426.21 260.67 432.23 261.74 432.23 261.74C432.23 261.74 436.64 255.32 437.58 256.26C438.52 257.2 436.11 261.61 435.04 262.81C433.97 264.01 433.84 264.15 432.9 264.41" stroke="#364865" stroke-linecap="round" stroke-linejoin="round"/>
<path d="M356.52 326.21L350.37 323.27" stroke="#7D7D7D" stroke-linecap="round" stroke-linejoin="round"/>
</g>
<defs>
<clipPath id="clip0_79_200">
<rect width="442.65" height="431.74" fill="white"/>
</clipPath>
</defs>
</svg>
